# xmcd
#
# Track frame offsets: 
#        150
#        1802
#        24228
#        45613
#        65536
#        81221
#        98889
#        119338
#        136300
#        153953
#        171782
#        188538
#        210578
#        228698
#        248911
#        267358
#        284553
#        305981
#        319545
#
# Disc length: 4564 seconds
#
# Revision: 1
# Processed by: cddbd v1.5.2PL0 Copyright (c) Steve Scherf et al.
# Submitted via: ExactAudioCopyFreeDBPlugin 1.0
#
DISCID=0411d213
DTITLE=Street Lord'z [aka Chedda Boyz] - Platinum Masterpiece
DYEAR=2003
DGENRE=Rap
TTITLE0=Intro
TTITLE1=Street Lord'z (Feat. Beanie Segal, Freeway and Young Chris)
TTITLE2=Uncle Jesse James Part 2
TTITLE3=Chrome On Them Toyz (Feat. Baby)
TTITLE4=Yeah Nigga Nigga
TTITLE5=Stunt Round Here (Feat. B.G.)
TTITLE6=Bangin' 4 All
TTITLE7=My Niggaz, Yall Niggaz (Feat. Benzino)
TTITLE8=Bentley's And Money Counters (Feat. Shyne)
TTITLE9=Tymers Never Fall (Feat. E-40 and B-Legit)
TTITLE10=Hey Hoe
TTITLE11=Imagine (Feat. Juvenile)
TTITLE12=Chedda Land
TTITLE13=Get Yo Money Right
TTITLE14=Lovem Like My Doe (Feat. Harm)
TTITLE15=Shake It Like That
TTITLE16=Thugged Out (Feat. Capone and Noreaga)
TTITLE17=Detroit Niggaz
TTITLE18=Chedda Boyz (Feat. Too Short and Harm)
EXTD=
EXTT0=
EXTT1=
EXTT2=
EXTT3=
EXTT4=
EXTT5=
EXTT6=
EXTT7=
EXTT8=
EXTT9=
EXTT10=
EXTT11=
EXTT12=
EXTT13=
EXTT14=
EXTT15=
EXTT16=
EXTT17=
EXTT18=
PLAYORDER=
